<svg viewBox="0 0 123.39 26.6" xmlns="http://www.w3.org/2000/svg"><g fill="#fff"><path d="m34.65 9.35.83-6.79h.44a.27.27 0 0 1 .3.3l-.08 1.08a3.24 3.24 0 0 1 .41-.59 3.38 3.38 0 0 1 .45-.46 1.8 1.8 0 0 1 .52-.29 1.5 1.5 0 0 1 .55-.11 1.21 1.21 0 0 1 1 .47 2.27 2.27 0 0 1 .36 1.38 3.81 3.81 0 0 1 -.09.82 4.15 4.15 0 0 1 -.24.78 4.28 4.28 0 0 1 -.38.7 3 3 0 0 1 -.5.56 2.43 2.43 0 0 1 -.59.37 1.7 1.7 0 0 1 -.63.13 1.65 1.65 0 0 1 -.68-.14 1.35 1.35 0 0 1 -.52-.43l-.27 2.22zm3.11-6.14a.93.93 0 0 0 -.49.15 1.86 1.86 0 0 0 -.48.42 4.18 4.18 0 0 0 -.43.64 5.83 5.83 0 0 0 -.34.8l-.16 1.29a1 1 0 0 0 .46.39 1.31 1.31 0 0 0 .54.11 1 1 0 0 0 .49-.11 1.66 1.66 0 0 0 .42-.29 2.46 2.46 0 0 0 .34-.44 2.65 2.65 0 0 0 .25-.54 4.08 4.08 0 0 0 .16-.6 3.15 3.15 0 0 0 .06-.61 1.61 1.61 0 0 0 -.22-.9.67.67 0 0 0 -.6-.31z"/><path d="m42.48 7.7a1.87 1.87 0 0 1 -.76-.14 1.53 1.53 0 0 1 -.59-.41 1.81 1.81 0 0 1 -.39-.66 2.48 2.48 0 0 1 -.14-.89 3.45 3.45 0 0 1 .2-1.21 3.38 3.38 0 0 1 .54-1 2.78 2.78 0 0 1 .82-.67 2.26 2.26 0 0 1 1-.24 2.1 2.1 0 0 1 .76.14 1.74 1.74 0 0 1 .59.41 1.77 1.77 0 0 1 .39.67 2.66 2.66 0 0 1 .14.88 3.6 3.6 0 0 1 -.2 1.2 3 3 0 0 1 -.55 1 2.55 2.55 0 0 1 -.82.68 2.25 2.25 0 0 1 -.99.24zm.08-.7a1.22 1.22 0 0 0 .67-.2 1.73 1.73 0 0 0 .51-.53 3 3 0 0 0 .32-.77 3.39 3.39 0 0 0 .12-.91 1.74 1.74 0 0 0 -.28-1.06 1 1 0 0 0 -.79-.35 1.13 1.13 0 0 0 -.67.2 1.62 1.62 0 0 0 -.51.53 2.49 2.49 0 0 0 -.32.76 3.44 3.44 0 0 0 -.12.91 1.74 1.74 0 0 0 .27 1.06.94.94 0 0 0 .8.36z"/><path d="m46.38 2.57h.67a.28.28 0 0 1 .16.05.21.21 0 0 1 .07.13l.47 3.25v.34s0 .22 0 .32l.12-.32c0-.11.09-.22.14-.34l1.38-3.28a.23.23 0 0 1 .1-.12.25.25 0 0 1 .15 0h.36a.25.25 0 0 1 .16 0 .23.23 0 0 1 .06.12l.61 3.28v.34s0 .22 0 .33l.17-.31c0-.12.07-.23.12-.35l1.28-3.26a.28.28 0 0 1 .26-.18h.64l-2.12 5.06h-.68c-.08 0-.12 0-.14-.17l-.62-3.46a.88.88 0 0 1 0-.16v-.17a1.54 1.54 0 0 0 -.05.17l-.1.16-1.47 3.46c0 .12-.11.17-.2.17h-.65z"/><path d="m58.11 3.65a1.37 1.37 0 0 1 -.14.61 1.23 1.23 0 0 1 -.49.5 3.63 3.63 0 0 1 -1 .39 10.17 10.17 0 0 1 -1.62.26.45.45 0 0 0 0 .11v.11a1.57 1.57 0 0 0 .29 1 1.08 1.08 0 0 0 .85.37 1.34 1.34 0 0 0 .42 0 1.5 1.5 0 0 0 .34-.12 1.64 1.64 0 0 0 .26-.16l.21-.16.17-.12a.33.33 0 0 1 .16 0 .25.25 0 0 1 .17.08l.27.18a4 4 0 0 1 -.5.45 2.42 2.42 0 0 1 -.5.31 2.1 2.1 0 0 1 -.53.19 3.83 3.83 0 0 1 -.6 0 2.13 2.13 0 0 1 -.78-.14 1.74 1.74 0 0 1 -.58-.41 1.81 1.81 0 0 1 -.37-.65 2.53 2.53 0 0 1 -.14-.8 3.44 3.44 0 0 1 .08-.78 3.2 3.2 0 0 1 .24-.74 3.25 3.25 0 0 1 .38-.65 2.78 2.78 0 0 1 .52-.48 2.54 2.54 0 0 1 .65-.35 2.33 2.33 0 0 1 .76-.12 1.9 1.9 0 0 1 .66.11 1.38 1.38 0 0 1 .46.28 1.17 1.17 0 0 1 .27.37 1 1 0 0 1 .09.36zm-1.53-.51a1.24 1.24 0 0 0 -.58.13 1.38 1.38 0 0 0 -.47.36 2 2 0 0 0 -.35.53 3 3 0 0 0 -.23.66 9.8 9.8 0 0 0 1.24-.21 3.21 3.21 0 0 0 .71-.27.71.71 0 0 0 .33-.34.81.81 0 0 0 .08-.34.46.46 0 0 0 0-.19.68.68 0 0 0 -.13-.18.91.91 0 0 0 -.22-.13 1.16 1.16 0 0 0 -.38-.02z"/><path d="m59.3 7.63.61-5.07h.44a.36.36 0 0 1 .22.07.25.25 0 0 1 .08.2v.06a.17.17 0 0 1 0 .07v.11l-.08.93a3.44 3.44 0 0 1 .72-1.08 1.2 1.2 0 0 1 .85-.38 1.06 1.06 0 0 1 .42.09l-.16.85a1.29 1.29 0 0 0 -.4-.1 1.1 1.1 0 0 0 -.87.47 4 4 0 0 0 -.63 1.43l-.28 2.35z"/><path d="m67.29 3.65a1.37 1.37 0 0 1 -.14.61 1.23 1.23 0 0 1 -.49.5 3.63 3.63 0 0 1 -1 .39 10.17 10.17 0 0 1 -1.62.26.45.45 0 0 0 0 .11v.11a1.57 1.57 0 0 0 .29 1 1.08 1.08 0 0 0 .89.35 1.34 1.34 0 0 0 .42 0 1.5 1.5 0 0 0 .36-.15 1.64 1.64 0 0 0 .26-.16l.21-.16.17-.12a.33.33 0 0 1 .16 0 .25.25 0 0 1 .17.08l.22.28a4 4 0 0 1 -.5.45 2.42 2.42 0 0 1 -.5.31 2.1 2.1 0 0 1 -.53.19 3.83 3.83 0 0 1 -.6 0 2.13 2.13 0 0 1 -.78-.14 1.74 1.74 0 0 1 -.58-.41 1.81 1.81 0 0 1 -.37-.65 2.53 2.53 0 0 1 -.13-.85 3.44 3.44 0 0 1 .08-.78 3.2 3.2 0 0 1 .24-.74 3.25 3.25 0 0 1 .38-.65 2.78 2.78 0 0 1 .5-.48 2.54 2.54 0 0 1 .65-.35 2.33 2.33 0 0 1 .76-.12 1.9 1.9 0 0 1 .66.11 1.38 1.38 0 0 1 .46.28 1.17 1.17 0 0 1 .27.37 1 1 0 0 1 .09.36zm-1.53-.51a1.24 1.24 0 0 0 -.58.13 1.38 1.38 0 0 0 -.47.36 2 2 0 0 0 -.35.53 3.68 3.68 0 0 0 -.23.66 9.49 9.49 0 0 0 1.24-.21 3.21 3.21 0 0 0 .71-.27.71.71 0 0 0 .33-.34.81.81 0 0 0 .08-.34.46.46 0 0 0 0-.19.68.68 0 0 0 -.13-.18.75.75 0 0 0 -.22-.13 1.16 1.16 0 0 0 -.38-.02z"/><path d="m71.9 7.63a.27.27 0 0 1 -.24-.09.38.38 0 0 1 -.06-.22l.1-1.05a4.43 4.43 0 0 1 -.42.59 2.81 2.81 0 0 1 -.47.45 2.07 2.07 0 0 1 -.52.29 1.47 1.47 0 0 1 -.54.1 1.19 1.19 0 0 1 -1-.47 2.22 2.22 0 0 1 -.35-1.37 3.8 3.8 0 0 1 .07-.86 5.16 5.16 0 0 1 .24-.79 3.82 3.82 0 0 1 .38-.69 2.73 2.73 0 0 1 .5-.56 2.16 2.16 0 0 1 .59-.37 1.71 1.71 0 0 1 .67-.14 1.54 1.54 0 0 1 .68.15 1.48 1.48 0 0 1 .52.41l.35-2.74h.87l-.91 7.36zm-1.81-.63a.9.9 0 0 0 .48-.15 2 2 0 0 0 .43-.42 3.35 3.35 0 0 0 .42-.62 4.83 4.83 0 0 0 .35-.8l.23-1.34a1.12 1.12 0 0 0 -.45-.37 1.49 1.49 0 0 0 -.55-.11 1.2 1.2 0 0 0 -.71.23 2.13 2.13 0 0 0 -.54.61 3.22 3.22 0 0 0 -.34.83 3.61 3.61 0 0 0 -.12.91 1.63 1.63 0 0 0 .21.91.71.71 0 0 0 .59.32z"/><path d="m77 7.63.86-7.36h.87l-.44 3.58a4.75 4.75 0 0 1 .41-.56 3.05 3.05 0 0 1 .46-.43 2.7 2.7 0 0 1 .5-.27 1.61 1.61 0 0 1 .53-.1 1.21 1.21 0 0 1 1 .47 2.27 2.27 0 0 1 .36 1.38 3.81 3.81 0 0 1 -.09.82 5 5 0 0 1 -.24.78 4.28 4.28 0 0 1 -.38.7 3.38 3.38 0 0 1 -.5.56 2.43 2.43 0 0 1 -.59.37 1.7 1.7 0 0 1 -.67.13 1.48 1.48 0 0 1 -.73-.17 1.38 1.38 0 0 1 -.54-.48l-.06.32a.53.53 0 0 1 -.11.2.29.29 0 0 1 -.21.06zm2.89-4.42a.93.93 0 0 0 -.49.15 2.19 2.19 0 0 0 -.47.41 3.86 3.86 0 0 0 -.43.63 4.81 4.81 0 0 0 -.34.8l-.16 1.32a1 1 0 0 0 .45.38 1.31 1.31 0 0 0 .55.1 1 1 0 0 0 .49-.11 1.66 1.66 0 0 0 .42-.29 2.46 2.46 0 0 0 .34-.44 2.65 2.65 0 0 0 .25-.54 4.08 4.08 0 0 0 .16-.6 3.15 3.15 0 0 0 .06-.61 1.61 1.61 0 0 0 -.22-.9.67.67 0 0 0 -.64-.3z"/><path d="m84 9.14a.33.33 0 0 1 -.31.21h-.65l1.1-2-1.28-4.78h.73a.25.25 0 0 1 .16.05.33.33 0 0 1 .07.13l.82 3.19v.21s0 .14 0 .21l.09-.21a2 2 0 0 1 .1-.21l1.6-3.2a.25.25 0 0 1 .11-.12.23.23 0 0 1 .15-.05h.7z"/><path d="m1.52 22.48h4.12v1.11h-5.64v-1.06l4-6.29h-3.92v-1.12h5.5v1.07z"/><path d="m7 14.49a.85.85 0 0 1 .64-.23.88.88 0 0 1 .64.23.8.8 0 0 1 0 1.14 1 1 0 0 1 -.64.21.93.93 0 0 1 -.64-.21.8.8 0 0 1 0-1.14zm1.34 2.51v6.61h-1.34v-6.61z"/><path d="m15.54 17.62a3 3 0 0 1 .7 2.12v3.85h-1.37v-3.7a1.92 1.92 0 0 0 -.46-1.38 1.63 1.63 0 0 0 -1.25-.51 1.68 1.68 0 0 0 -1.3.52 2.13 2.13 0 0 0 -.5 1.53v3.51h-1.36v-6.56h1.36v1.45a2.29 2.29 0 0 1 .89-1.15 2.61 2.61 0 0 1 1.44-.41 2.4 2.4 0 0 1 1.85.73z"/><path d="m22 17.34a2.46 2.46 0 0 1 .9 1.18v-1.52h1.37v6.69a3.44 3.44 0 0 1 -.38 1.63 2.76 2.76 0 0 1 -1.09 1.13 3.32 3.32 0 0 1 -1.68.4 3.62 3.62 0 0 1 -2.25-.66 2.82 2.82 0 0 1 -1.07-1.78h1.36a1.58 1.58 0 0 0 .64.91 2.13 2.13 0 0 0 1.23.33 1.84 1.84 0 0 0 1.34-.5 1.93 1.93 0 0 0 .53-1.46v-1.63a2.39 2.39 0 0 1 -.9 1.17 2.59 2.59 0 0 1 -1.54.45 3 3 0 0 1 -1.54-.41 2.78 2.78 0 0 1 -1.06-1.18 3.93 3.93 0 0 1 -.38-1.81 3.91 3.91 0 0 1 .38-1.8 2.81 2.81 0 0 1 1.06-1.17 2.86 2.86 0 0 1 1.54-.41 2.66 2.66 0 0 1 1.54.44zm-2.57 1.34a2.22 2.22 0 0 0 -.55 1.6 2.21 2.21 0 0 0 .55 1.6 1.89 1.89 0 0 0 1.45.59 1.93 1.93 0 0 0 1-.28 1.89 1.89 0 0 0 .72-.76 2.65 2.65 0 0 0 0-2.29 1.92 1.92 0 0 0 -.72-.77 2 2 0 0 0 -1-.27 1.88 1.88 0 0 0 -1.43.58z"/><path d="m35.49 21.58a3.7 3.7 0 0 1 -1.49 1.49 5.12 5.12 0 0 1 -2.4.52h-2.86v-8.47h2.83a5.25 5.25 0 0 1 2.4.52 3.65 3.65 0 0 1 1.52 1.47 4.58 4.58 0 0 1 .51 2.24 4.54 4.54 0 0 1 -.51 2.23zm-1.69 0a2.94 2.94 0 0 0 .82-2.22 2.91 2.91 0 0 0 -.82-2.22 3.21 3.21 0 0 0 -2.34-.8h-1.35v6h1.35a3.25 3.25 0 0 0 2.34-.77z"/><path d="m43.49 20.56h-5.09a2.07 2.07 0 0 0 .6 1.51 2 2 0 0 0 2.47.14 1.41 1.41 0 0 0 .58-.92h1.47a2.92 2.92 0 0 1 -.56 1.24 2.78 2.78 0 0 1 -1.09.84 3.75 3.75 0 0 1 -3.2-.1 2.85 2.85 0 0 1 -1.15-1.18 4.09 4.09 0 0 1 0-3.61 2.88 2.88 0 0 1 1.15-1.17 3.4 3.4 0 0 1 1.7-.41 3.45 3.45 0 0 1 1.7.4 2.89 2.89 0 0 1 1.12 1.1 3.18 3.18 0 0 1 .35 1.6 3.42 3.42 0 0 1 -.05.56zm-1.56-1.71a1.55 1.55 0 0 0 -.67-.65 2.05 2.05 0 0 0 -.93-.21 1.91 1.91 0 0 0 -1.34.49 2 2 0 0 0 -.59 1.45h3.76a2 2 0 0 0 -.23-1.08z"/><path d="m47.57 22.18 1.87-5.18h1.46l-2.52 6.61h-1.65l-2.52-6.61h1.46z"/><path d="m58 20.56h-5.08a2.07 2.07 0 0 0 .56 1.51 2 2 0 0 0 2.47.14 1.41 1.41 0 0 0 .58-.92h1.47a2.92 2.92 0 0 1 -.56 1.24 2.78 2.78 0 0 1 -1.09.84 3.75 3.75 0 0 1 -3.2-.1 2.85 2.85 0 0 1 -1.15-1.18 4.09 4.09 0 0 1 0-3.61 2.88 2.88 0 0 1 1.15-1.17 3.77 3.77 0 0 1 3.4 0 2.89 2.89 0 0 1 1.12 1.1 3.18 3.18 0 0 1 .39 1.59 3.42 3.42 0 0 1 -.06.56zm-1.56-1.71a1.5 1.5 0 0 0 -.67-.65 2.05 2.05 0 0 0 -.93-.21 1.91 1.91 0 0 0 -1.34.49 2 2 0 0 0 -.59 1.45h3.76a2 2 0 0 0 -.22-1.08z"/><path d="m60.74 14.71v8.88h-1.36v-8.88z"/><path d="m67.15 17.31a2.94 2.94 0 0 1 1.2 1.17 4 4 0 0 1 0 3.61 2.9 2.9 0 0 1 -1.2 1.18 3.65 3.65 0 0 1 -1.73.41 3.61 3.61 0 0 1 -1.72-.41 3 3 0 0 1 -1.2-1.18 3.65 3.65 0 0 1 -.44-1.81 3.58 3.58 0 0 1 .44-1.8 2.94 2.94 0 0 1 1.2-1.17 3.5 3.5 0 0 1 1.72-.41 3.54 3.54 0 0 1 1.73.41zm-2.7 1a1.79 1.79 0 0 0 -.71.73 2.91 2.91 0 0 0 0 2.45 1.85 1.85 0 0 0 .71.73 2.1 2.1 0 0 0 2 0 1.85 1.85 0 0 0 .71-.73 2.91 2.91 0 0 0 0-2.45 1.79 1.79 0 0 0 -.71-.73 2.1 2.1 0 0 0 -2 0z"/><path d="m75.44 17.31a2.81 2.81 0 0 1 1.06 1.17 4.48 4.48 0 0 1 0 3.61 2.78 2.78 0 0 1 -1.06 1.18 3 3 0 0 1 -1.54.41 2.57 2.57 0 0 1 -1.54-.45 2.31 2.31 0 0 1 -.89-1.17v4.68h-1.37v-9.74h1.37v1.54a2.38 2.38 0 0 1 .89-1.18 2.64 2.64 0 0 1 1.54-.44 2.86 2.86 0 0 1 1.54.39zm-3 1.06a1.92 1.92 0 0 0 -.72.77 2.65 2.65 0 0 0 0 2.29 1.89 1.89 0 0 0 .72.76 2.09 2.09 0 0 0 2.5-.31 2.21 2.21 0 0 0 .55-1.6 2.21 2.21 0 0 0 -.55-1.59 1.89 1.89 0 0 0 -1.46-.59 2 2 0 0 0 -1.04.27z"/><path d="m84.3 20.56h-5.09a2.07 2.07 0 0 0 .57 1.51 1.81 1.81 0 0 0 1.3.49 1.86 1.86 0 0 0 1.16-.35 1.41 1.41 0 0 0 .58-.92h1.47a3 3 0 0 1 -.55 1.24 2.81 2.81 0 0 1 -1.1.84 3.73 3.73 0 0 1 -3.19-.1 2.81 2.81 0 0 1 -1.16-1.18 4.09 4.09 0 0 1 0-3.61 2.84 2.84 0 0 1 1.16-1.17 3.33 3.33 0 0 1 1.69-.41 3.42 3.42 0 0 1 1.7.4 2.82 2.82 0 0 1 1.16 1.1 3.18 3.18 0 0 1 .35 1.6 3.42 3.42 0 0 1 -.05.56zm-1.55-1.71a1.58 1.58 0 0 0 -.68-.65 2.05 2.05 0 0 0 -.93-.21 1.91 1.91 0 0 0 -1.34.49 2 2 0 0 0 -.59 1.45h3.79a2.11 2.11 0 0 0 -.25-1.08z"/><path d="m88 17.25a2.7 2.7 0 0 1 1.43-.38v1.49h-.43a2.26 2.26 0 0 0 -1.45.44 1.75 1.75 0 0 0 -.55 1.45v3.34h-1.33v-6.59h1.33v1.3a2.51 2.51 0 0 1 1-1.05z"/><path d="m94.49 17.49a2.51 2.51 0 0 1 .86 1.59h-1.3a1.38 1.38 0 0 0 -.46-.87 1.45 1.45 0 0 0 -1-.33 1.16 1.16 0 0 0 -.8.25.81.81 0 0 0 -.28.66.69.69 0 0 0 .2.51 1.44 1.44 0 0 0 .51.3q.32.11.87.24a8.39 8.39 0 0 1 1.21.35 1.93 1.93 0 0 1 .79.57 1.58 1.58 0 0 1 .33 1.06 1.64 1.64 0 0 1 -.63 1.34 2.56 2.56 0 0 1 -1.7.52 3.16 3.16 0 0 1 -2-.58 2.34 2.34 0 0 1 -.92-1.61h1.33a1.26 1.26 0 0 0 .48.88 1.74 1.74 0 0 0 1.1.34 1.13 1.13 0 0 0 .78-.26.84.84 0 0 0 .28-.66.71.71 0 0 0 -.22-.55 1.58 1.58 0 0 0 -.54-.32 8.81 8.81 0 0 0 -.88-.23 8.19 8.19 0 0 1 -1.17-.34 1.8 1.8 0 0 1 -.77-.54 1.57 1.57 0 0 1 -.32-1 1.68 1.68 0 0 1 .63-1.36 2.65 2.65 0 0 1 1.75-.52 2.8 2.8 0 0 1 1.87.56z"/><path d="m97.85 23.8a1.7 1.7 0 0 1 -.35 1.1 1.29 1.29 0 0 1 -1.06.42v-.55a.58.58 0 0 0 .45-.16.79.79 0 0 0 .14-.52v-.09h-.7v-1.34h1.3a3.21 3.21 0 0 1 .22 1.14z"/><path d="m103.28 22.53h2.93v1.06h-4.29v-8.47h1.36z"/><path d="m114 21.58a3.67 3.67 0 0 1 -1.53 1.49 5.05 5.05 0 0 1 -2.39.52h-2.83v-8.47h2.83a5.17 5.17 0 0 1 2.39.52 3.62 3.62 0 0 1 1.53 1.47 4.58 4.58 0 0 1 .52 2.24 4.54 4.54 0 0 1 -.52 2.23zm-1.69 0a2.94 2.94 0 0 0 .82-2.22 2.91 2.91 0 0 0 -.82-2.22 3.21 3.21 0 0 0 -2.34-.8h-1.35v6h1.38a3.25 3.25 0 0 0 2.34-.77z"/><path d="m121 21.76h-3.57l-.65 1.83h-1.47l3.12-8.34h1.57l3.1 8.34h-1.46zm-.38-1.06-1.41-4-1.4 4z"/></g></svg>